<svg xmlns="http://www.w3.org/2000/svg" xmlns:xlink="http://www.w3.org/1999/xlink" width="32" height="32" viewBox="0 0 32 32" fill="none">
<path d="M18.4 13.6L29.6 13.6C29.6393 13.6 29.6785 13.601 29.7178 13.6029C29.757 13.6048 29.7962 13.6077 29.8353 13.6116C29.8743 13.6154 29.9133 13.6202 29.9522 13.626C29.991 13.6318 30.0297 13.6385 30.0682 13.6461C30.1068 13.6538 30.1451 13.6624 30.1832 13.6719C30.2213 13.6815 30.2591 13.6919 30.2967 13.7033C30.3343 13.7148 30.3716 13.7271 30.4085 13.7403C30.4455 13.7535 30.4822 13.7677 30.5184 13.7827C30.5547 13.7977 30.5906 13.8137 30.6261 13.8304C30.6616 13.8472 30.6967 13.8649 30.7313 13.8834C30.766 13.9019 30.8002 13.9213 30.8338 13.9414C30.8675 13.9617 30.9007 13.9827 30.9334 14.0045C30.966 14.0263 30.9981 14.0489 31.0297 14.0723C31.0612 14.0957 31.0922 14.1199 31.1225 14.1448C31.1529 14.1697 31.1827 14.1953 31.2118 14.2217C31.2408 14.2481 31.2694 14.2752 31.2972 14.3029C31.325 14.3307 31.3519 14.3592 31.3781 14.3883C31.4047 14.4173 31.4303 14.4471 31.4553 14.4775C31.48 14.5078 31.5044 14.5388 31.5278 14.5703C31.5513 14.6019 31.5737 14.634 31.5956 14.6666C31.6172 14.6993 31.6381 14.7325 31.6584 14.7662C31.6787 14.7998 31.6981 14.834 31.7166 14.8687C31.735 14.9033 31.7528 14.9383 31.7697 14.9739C31.7862 15.0094 31.8022 15.0453 31.8172 15.0816C31.8325 15.1178 31.8466 15.1545 31.8597 15.1915C31.8731 15.2284 31.8853 15.2657 31.8966 15.3033C31.9081 15.3409 31.9184 15.3787 31.9281 15.4168C31.9378 15.4549 31.9463 15.4932 31.9538 15.5318C31.9616 15.5703 31.9681 15.609 31.9741 15.6478C31.98 15.6867 31.9847 15.7257 31.9884 15.7647C31.9922 15.8038 31.995 15.843 31.9972 15.8822C31.9991 15.9215 32 15.9607 32 16C32 16.0393 31.9991 16.0785 31.9972 16.1178C31.995 16.157 31.9922 16.1962 31.9884 16.2353C31.9847 16.2743 31.98 16.3133 31.9741 16.3522C31.9681 16.391 31.9616 16.4297 31.9538 16.4682C31.9463 16.5068 31.9378 16.5451 31.9281 16.5832C31.9184 16.6213 31.9081 16.6591 31.8966 16.6967C31.8853 16.7343 31.8731 16.7716 31.8597 16.8085C31.8466 16.8455 31.8325 16.8822 31.8172 16.9184C31.8022 16.9547 31.7862 16.9906 31.7697 17.0261C31.7528 17.0617 31.735 17.0967 31.7166 17.1313C31.6981 17.166 31.6787 17.2002 31.6584 17.2338C31.6381 17.2675 31.6172 17.3007 31.5956 17.3334C31.5737 17.366 31.5513 17.3981 31.5278 17.4297C31.5044 17.4612 31.48 17.4922 31.4553 17.5225C31.4303 17.5529 31.4047 17.5827 31.3781 17.6117C31.3519 17.6408 31.325 17.6693 31.2972 17.6971C31.2694 17.7248 31.2408 17.7519 31.2118 17.7783C31.1827 17.8047 31.1529 17.8303 31.1225 17.8552C31.0922 17.8801 31.0612 17.9043 31.0297 17.9277C30.9981 17.9511 30.966 17.9737 30.9334 17.9955C30.9007 18.0173 30.8675 18.0383 30.8338 18.0586C30.8002 18.0788 30.766 18.0981 30.7313 18.1166C30.6967 18.1351 30.6616 18.1528 30.6261 18.1696C30.5906 18.1864 30.5547 18.2023 30.5184 18.2173C30.4822 18.2323 30.4455 18.2465 30.4085 18.2597C30.3716 18.2729 30.3343 18.2852 30.2967 18.2967C30.2591 18.3081 30.2213 18.3185 30.1832 18.3281C30.1451 18.3376 30.1068 18.3462 30.0682 18.3539C30.0297 18.3615 29.991 18.3682 29.9522 18.374C29.9133 18.3798 29.8743 18.3846 29.8353 18.3884C29.7962 18.3923 29.757 18.3952 29.7178 18.3971C29.6785 18.399 29.6393 18.4 29.6 18.4L18.4 18.4L18.4 29.6C18.4 29.6393 18.399 29.6785 18.3971 29.7178C18.3952 29.757 18.3923 29.7962 18.3884 29.8353C18.3846 29.8743 18.3798 29.9133 18.374 29.9522C18.3682 29.991 18.3615 30.0297 18.3539 30.0682C18.3462 30.1068 18.3376 30.1451 18.3281 30.1832C18.3185 30.2213 18.3081 30.2591 18.2967 30.2967C18.2852 30.3343 18.2729 30.3716 18.2597 30.4085C18.2465 30.4455 18.2323 30.4822 18.2173 30.5184C18.2023 30.5547 18.1863 30.5906 18.1696 30.6261C18.1528 30.6617 18.1351 30.6967 18.1166 30.7313C18.0981 30.766 18.0788 30.8002 18.0585 30.8338C18.0383 30.8675 18.0173 30.9007 17.9955 30.9334C17.9737 30.966 17.9511 30.9981 17.9277 31.0297C17.9043 31.0612 17.8801 31.0922 17.8552 31.1226C17.8303 31.1529 17.8047 31.1827 17.7783 31.2118C17.7519 31.2408 17.7248 31.2694 17.6971 31.2972C17.6693 31.325 17.6408 31.3519 17.6117 31.3784C17.5827 31.4047 17.5529 31.4303 17.5225 31.4553C17.4922 31.48 17.4612 31.5044 17.4297 31.5278C17.3981 31.5513 17.366 31.5737 17.3334 31.5956C17.3007 31.6172 17.2675 31.6381 17.2338 31.6584C17.2002 31.6787 17.166 31.6981 17.1313 31.7166C17.0967 31.735 17.0616 31.7528 17.0261 31.7697C16.9906 31.7862 16.9547 31.8022 16.9184 31.8172C16.8822 31.8325 16.8455 31.8466 16.8085 31.8597C16.7716 31.8731 16.7343 31.8853 16.6967 31.8966C16.6591 31.9081 16.6213 31.9184 16.5832 31.9281C16.5451 31.9378 16.5068 31.9463 16.4682 31.9538C16.4297 31.9616 16.391 31.9681 16.3522 31.9741C16.3133 31.98 16.2743 31.9847 16.2353 31.9884C16.1962 31.9925 16.157 31.9953 16.1178 31.9972C16.0785 31.9991 16.0393 32 16 32C15.9607 32 15.9215 31.9991 15.8822 31.9972C15.843 31.9953 15.8038 31.9925 15.7647 31.9884C15.7257 31.9847 15.6867 31.98 15.6478 31.9741C15.609 31.9681 15.5703 31.9616 15.5318 31.9538C15.4932 31.9463 15.4549 31.9378 15.4168 31.9281C15.3787 31.9184 15.3409 31.9081 15.3033 31.8966C15.2657 31.8853 15.2284 31.8731 15.1915 31.8597C15.1545 31.8466 15.1178 31.8325 15.0816 31.8172C15.0453 31.8022 15.0094 31.7862 14.9739 31.7697C14.9383 31.7528 14.9033 31.735 14.8687 31.7166C14.834 31.6981 14.7998 31.6787 14.7662 31.6584C14.7325 31.6381 14.6993 31.6172 14.6666 31.5956C14.634 31.5737 14.6018 31.5513 14.5703 31.5278C14.5388 31.5044 14.5078 31.48 14.4775 31.4553C14.4471 31.4303 14.4173 31.4047 14.3883 31.3784C14.3592 31.3519 14.3307 31.325 14.3029 31.2972C14.2752 31.2694 14.2481 31.2408 14.2217 31.2118C14.1953 31.1827 14.1697 31.1529 14.1448 31.1226C14.1199 31.0922 14.0957 31.0612 14.0723 31.0297C14.0489 30.9981 14.0263 30.966 14.0045 30.9334C13.9827 30.9007 13.9617 30.8675 13.9414 30.8338C13.9213 30.8002 13.9019 30.766 13.8834 30.7313C13.8649 30.6967 13.8472 30.6617 13.8304 30.6261C13.8136 30.5906 13.7977 30.5547 13.7827 30.5184C13.7677 30.4822 13.7535 30.4455 13.7403 30.4085C13.7271 30.3716 13.7148 30.3343 13.7033 30.2967C13.6919 30.2591 13.6815 30.2213 13.6719 30.1832C13.6624 30.1451 13.6538 30.1068 13.6461 30.0682C13.6385 30.0297 13.6318 29.991 13.626 29.9522C13.6202 29.9133 13.6154 29.8743 13.6116 29.8353C13.6077 29.7962 13.6048 29.757 13.6029 29.7178C13.601 29.6785 13.6 29.6393 13.6 29.6L13.6 18.4L2.4 18.4C2.36072 18.4 2.32147 18.399 2.28224 18.3971C2.24301 18.3952 2.20385 18.3923 2.16476 18.3884C2.12567 18.3846 2.0867 18.3798 2.04785 18.374C2.00899 18.3682 1.97031 18.3615 1.93178 18.3539C1.89326 18.3462 1.85495 18.3376 1.81685 18.3281C1.77875 18.3185 1.7409 18.3081 1.70332 18.2967C1.66573 18.2852 1.62845 18.2729 1.59147 18.2597C1.55448 18.2465 1.51785 18.2323 1.48156 18.2173C1.44527 18.2023 1.40937 18.1864 1.37387 18.1696C1.33836 18.1528 1.30329 18.1351 1.26865 18.1166C1.23401 18.0981 1.19984 18.0788 1.16615 18.0586C1.13246 18.0383 1.09929 18.0173 1.06663 17.9955C1.03397 17.9737 1.00187 17.9511 0.970322 17.9277C0.938772 17.9043 0.907819 17.8801 0.877456 17.8552C0.847094 17.8303 0.817359 17.8047 0.788259 17.7783C0.759156 17.7519 0.730719 17.7248 0.702944 17.6971C0.675169 17.6693 0.648094 17.6408 0.621719 17.6117C0.595341 17.5827 0.569694 17.5529 0.544775 17.5225C0.519856 17.4922 0.4957 17.4612 0.472303 17.4297C0.448903 17.3981 0.426294 17.366 0.404475 17.3334C0.38265 17.3007 0.361644 17.2675 0.341453 17.2338C0.321259 17.2002 0.301904 17.166 0.283389 17.1313C0.264873 17.0967 0.247219 17.0617 0.230426 17.0261C0.213632 16.9906 0.19772 16.9547 0.182689 16.9184C0.167658 16.8822 0.153527 16.8455 0.140294 16.8085C0.127062 16.7716 0.114745 16.7343 0.103343 16.6967C0.0919413 16.6591 0.0814688 16.6213 0.071925 16.5832C0.0623812 16.5451 0.0537781 16.5068 0.0461153 16.4682C0.0384528 16.4297 0.0317397 16.391 0.0259764 16.3522C0.0202131 16.3133 0.0154066 16.2743 0.0115567 16.2353C0.00770678 16.1962 0.00481819 16.157 0.0028909 16.1178C0.000963634 16.0785 0 16.0393 0 16C0 15.9607 0.000963634 15.9215 0.0028909 15.8822C0.00481819 15.843 0.00770678 15.8038 0.0115567 15.7647C0.0154066 15.7257 0.0202131 15.6867 0.0259764 15.6478C0.0317397 15.609 0.0384528 15.5703 0.0461153 15.5318C0.0537781 15.4932 0.0623812 15.4549 0.071925 15.4168C0.0814688 15.3787 0.0919413 15.3409 0.103343 15.3033C0.114745 15.2657 0.127062 15.2284 0.140294 15.1915C0.153527 15.1545 0.167658 15.1178 0.182689 15.0816C0.19772 15.0453 0.213632 15.0094 0.230426 14.9739C0.247219 14.9383 0.264873 14.9033 0.283389 14.8687C0.301904 14.834 0.321259 14.7998 0.341453 14.7662C0.361644 14.7325 0.38265 14.6993 0.404475 14.6666C0.426294 14.634 0.448903 14.6019 0.472303 14.5703C0.4957 14.5388 0.519856 14.5078 0.544775 14.4775C0.569694 14.4471 0.595341 14.4173 0.621719 14.3883C0.648094 14.3592 0.675169 14.3307 0.702944 14.3029C0.730719 14.2752 0.759156 14.2481 0.788259 14.2217C0.817359 14.1953 0.847094 14.1697 0.877456 14.1448C0.907819 14.1199 0.938772 14.0957 0.970322 14.0723C1.00187 14.0489 1.03397 14.0263 1.06663 14.0045C1.09929 13.9827 1.13246 13.9617 1.16615 13.9414C1.19984 13.9213 1.23401 13.9019 1.26865 13.8834C1.30329 13.8649 1.33836 13.8472 1.37387 13.8304C1.40937 13.8137 1.44527 13.7977 1.48156 13.7827C1.51785 13.7677 1.55448 13.7535 1.59147 13.7403C1.62845 13.7271 1.66573 13.7148 1.70332 13.7033C1.7409 13.6919 1.77875 13.6815 1.81685 13.6719C1.85495 13.6624 1.89326 13.6538 1.93178 13.6461C1.97031 13.6385 2.00899 13.6318 2.04785 13.626C2.0867 13.6202 2.12567 13.6154 2.16476 13.6116C2.20385 13.6077 2.24301 13.6048 2.28224 13.6029C2.32147 13.601 2.36072 13.6 2.4 13.6L13.6 13.6L13.6 2.4C13.6 2.36072 13.601 2.32147 13.6029 2.28224C13.6048 2.24301 13.6077 2.20385 13.6116 2.16476C13.6154 2.12567 13.6202 2.0867 13.626 2.04785C13.6318 2.00899 13.6385 1.97031 13.6461 1.93178C13.6538 1.89326 13.6624 1.85495 13.6719 1.81685C13.6815 1.77875 13.6919 1.7409 13.7033 1.70332C13.7148 1.66573 13.7271 1.62845 13.7403 1.59147C13.7535 1.55448 13.7677 1.51785 13.7827 1.48156C13.7977 1.44527 13.8136 1.40937 13.8304 1.37387C13.8472 1.33836 13.8649 1.30329 13.8834 1.26865C13.9019 1.23401 13.9213 1.19984 13.9414 1.16616C13.9617 1.13246 13.9827 1.09929 14.0045 1.06663C14.0263 1.03398 14.0489 1.00187 14.0723 0.970322C14.0957 0.938772 14.1199 0.907819 14.1448 0.877456C14.1697 0.847094 14.1953 0.817362 14.2217 0.788259C14.2481 0.759156 14.2752 0.730719 14.3029 0.702944C14.3307 0.675169 14.3592 0.648094 14.3883 0.621719C14.4173 0.595341 14.4471 0.569694 14.4775 0.544775C14.5078 0.519856 14.5388 0.4957 14.5703 0.472303C14.6018 0.448903 14.634 0.426294 14.6666 0.404475C14.6993 0.38265 14.7325 0.361644 14.7662 0.341453C14.7998 0.321259 14.834 0.301904 14.8687 0.283389C14.9033 0.264873 14.9383 0.247219 14.9739 0.230426C15.0094 0.213632 15.0453 0.19772 15.0816 0.182689C15.1178 0.167658 15.1545 0.153527 15.1915 0.140294C15.2284 0.127062 15.2657 0.114745 15.3033 0.103343C15.3409 0.0919413 15.3787 0.0814688 15.4168 0.071925C15.4549 0.0623812 15.4932 0.0537781 15.5318 0.0461153C15.5703 0.0384528 15.609 0.0317397 15.6478 0.0259764C15.6867 0.0202131 15.7257 0.0154066 15.7647 0.0115567C15.8038 0.00770678 15.843 0.00481819 15.8822 0.0028909C15.9215 0.000963634 15.9607 1.02318e-12 16 1.02318e-12C16.0393 1.02318e-12 16.0785 0.000963634 16.1178 0.0028909C16.157 0.00481819 16.1962 0.00770678 16.2353 0.0115567C16.2743 0.0154066 16.3133 0.0202131 16.3522 0.0259764C16.391 0.0317397 16.4297 0.0384528 16.4682 0.0461153C16.5068 0.0537781 16.5451 0.0623812 16.5832 0.071925C16.6213 0.0814688 16.6591 0.0919413 16.6967 0.103343C16.7343 0.114745 16.7716 0.127062 16.8085 0.140294C16.8455 0.153527 16.8822 0.167658 16.9184 0.182689C16.9547 0.19772 16.9906 0.213632 17.0261 0.230426C17.0616 0.247219 17.0967 0.264873 17.1313 0.283389C17.166 0.301904 17.2002 0.321259 17.2338 0.341453C17.2675 0.361644 17.3007 0.38265 17.3334 0.404475C17.366 0.426294 17.3981 0.448903 17.4297 0.472303C17.4612 0.4957 17.4922 0.519856 17.5225 0.544775C17.5529 0.569694 17.5827 0.595341 17.6117 0.621719C17.6408 0.648094 17.6693 0.675169 17.6971 0.702944C17.7248 0.730719 17.7519 0.759156 17.7783 0.788259C17.8047 0.817362 17.8303 0.847094 17.8552 0.877456C17.8801 0.907819 17.9043 0.938772 17.9277 0.970322C17.9511 1.00187 17.9737 1.03398 17.9955 1.06663C18.0173 1.09929 18.0383 1.13246 18.0585 1.16616C18.0788 1.19984 18.0981 1.23401 18.1166 1.26865C18.1351 1.30329 18.1528 1.33836 18.1696 1.37387C18.1863 1.40937 18.2023 1.44527 18.2173 1.48156C18.2323 1.51785 18.2465 1.55448 18.2597 1.59147C18.2729 1.62845 18.2852 1.66573 18.2967 1.70332C18.3081 1.7409 18.3185 1.77875 18.3281 1.81685C18.3376 1.85495 18.3462 1.89326 18.3539 1.93178C18.3615 1.97031 18.3682 2.00899 18.374 2.04785C18.3798 2.0867 18.3846 2.12567 18.3884 2.16476C18.3923 2.20385 18.3952 2.24301 18.3971 2.28224C18.399 2.32147 18.4 2.36072 18.4 2.4L18.4 13.6Z"   fill="#272727" >
</path>
</svg>
