<svg xmlns="http://www.w3.org/2000/svg" xmlns:xlink="http://www.w3.org/1999/xlink" width="32" height="26.666748046875" viewBox="0 0 32 26.666748046875" fill="none">
<path d="M26.6667 26.6667L1.33333 26.6667C0.533334 26.6667 0 26.1333 0 25.3333L0 1.33333C0 0.533334 0.533334 0 1.33333 0L10.6667 0C11.4667 0 12 0.533334 12 1.33333L12 2.66668L26.6667 2.66668C27.4667 2.66668 28 3.2 28 4L28 9.33334C28 10.1333 27.4667 10.6667 26.6667 10.6667C25.8667 10.6667 25.3333 10.1333 25.3333 9.33334L25.3333 5.33334L10.6667 5.33334C9.86666 5.33334 9.33334 4.8 9.33334 4L9.33334 2.66668L2.66667 2.66668L2.66667 24L26.6667 24C27.4667 24 28 24.5333 28 25.3333C28 26.1333 27.4667 26.6667 26.6667 26.6667ZM26.6667 26.6667L1.33333 26.6667C0.933334 26.6667 0.533334 26.5333 0.266667 26.1333C1.78814e-07 25.7333 0 25.4667 0 25.0667L4 9.06669C4.13334 8.4 4.66666 8 5.33334 8L30.6667 8C31.0667 8 31.4666 8.13334 31.7334 8.53334C32 8.93334 32 9.2 32 9.6L28 25.6C27.8667 26.2667 27.3333 26.6667 26.6667 26.6667ZM3.06667 24L25.6 24L28.9333 10.6667L6.4 10.6667L3.06667 24Z"   fill="#272727" >
</path>
</svg>
